<?xml version="1.0" encoding="UTF-8"?>
<!DOCTYPE svg PUBLIC "-//W3C//DTD SVG 1.1//EN" "http://www.w3.org/Graphics/SVG/1.1/DTD/svg11.dtd">
<!-- Creator: CorelDRAW 2021 (64-Bit) -->
<svg xmlns="http://www.w3.org/2000/svg" xml:space="preserve" width="25.1803mm" height="25.1803mm" version="1.1" style="shape-rendering:geometricPrecision; text-rendering:geometricPrecision; image-rendering:optimizeQuality; fill-rule:evenodd; clip-rule:evenodd"
viewBox="0 0 104.24 104.24"
 xmlns:xlink="http://www.w3.org/1999/xlink"
 xmlns:xodm="http://www.corel.com/coreldraw/odm/2003">
 <defs>
  <style type="text/css">
   <![CDATA[
    .fil3 {fill:#047641}
    .fil6 {fill:#057542}
    .fil4 {fill:#067942}
    .fil5 {fill:#0A7443}
    .fil15 {fill:#0E132F}
    .fil2 {fill:#112464}
    .fil1 {fill:#142663}
    .fil8 {fill:#174856}
    .fil7 {fill:#2E4F6C}
    .fil19 {fill:#4A5071}
    .fil10 {fill:#4E8B54}
    .fil11 {fill:#57A58E}
    .fil13 {fill:#6F9C6F}
    .fil22 {fill:#87AA86}
    .fil20 {fill:#88A878}
    .fil18 {fill:#899199}
    .fil12 {fill:#91AF8D}
    .fil21 {fill:#959BA7}
    .fil23 {fill:#97BBA9}
    .fil14 {fill:#98B598}
    .fil16 {fill:#A7A9AB}
    .fil9 {fill:#A7ACB6}
    .fil17 {fill:#AEB6C9}
    .fil0 {fill:white}
   ]]>
  </style>
 </defs>
 <g id="Capa_x0020_1">
  <metadata id="CorelCorpID_0Corel-Layer"/>
  <g id="_1490007823776">
   <circle class="fil0" cx="52.12" cy="52.12" r="52.12"/>
   <path class="fil1" d="M64.16 21.05l0.01 5.13c0.29,-0.09 0.53,-0.56 0.7,-0.82l1.83 -2.43c0.1,-0.22 0.27,-0.39 0.45,-0.54 0.38,0.33 0.15,0.57 0.13,0.96 -0.01,0.4 0.02,0.89 0.01,1.31 -0.01,0.88 -0.02,1.74 -0.02,2.61l-0.02 0.65 -0 0.09c0.27,0.56 0.08,3.3 0.09,4.13 0.02,1.34 -0.02,2.7 -0.03,4.04 -0,0.3 0.07,0.8 0.05,1.02 -0.05,0.48 -0.08,0.36 -0.01,0.88 0.11,0.85 -0.13,2.96 -0.06,4.05 0.01,0.17 0.07,0.28 0.09,0.42l-0.02 2.55c0.04,0.41 0.09,0.55 -0.07,0.94 -0.14,0.35 0.12,0.47 0.09,0.91 -0.02,0.24 -0.14,0.67 -0.13,0.89 0.02,0.27 0.09,0.09 0.12,0.41l-0.01 1.55c0,0.39 -0.12,0.58 -0.05,0.93 0.07,0.36 0.08,0.54 -0.06,0.88 -0.13,0.33 0.1,0.53 0.12,0.86 0.02,0.37 -0.01,0.6 0.05,0.98l-0.04 1.93c-0,0.66 -0.1,1.3 -0.1,1.96 -0,0.27 0.03,1.82 -0.12,1.92 0.07,1.12 0.01,2.19 -0.01,3.31 -0.01,0.6 0,1.05 -0.04,1.66 -0.03,0.47 -0.03,1.24 0,1.7 0.34,0.06 0.24,0.12 0.66,0.07 0.01,-0.36 0.12,-0.25 0.12,-0.94 -0,-0.41 -0.06,-0.68 -0.06,-1.07l-0 -3.27c0,-0.29 0.06,-0.36 0.06,-1.07 0,-0.77 0.09,-1.31 -0.02,-2.08l0.02 -0.19 0.18 -0.01c0.75,0.09 1.8,0.99 2.4,1.36 1.3,0.79 1.26,0.98 2.1,1.64 1.51,1.19 2.61,2.61 3.05,4.43 0.12,0.49 0.26,1.09 0.14,1.65 -0.26,1.33 -0.88,2.78 -1.92,3.72 -0.73,0.66 -1.62,1.05 -2.56,1.18 -0.65,0.09 -3.02,0.3 -3.35,-0.23 -0.11,-0.27 -0.07,-1.23 -0.02,-1.56l-0.08 -0.33 -0.39 0.04c-0.47,0.23 -0.23,1.35 -0.28,1.85 0.35,0.46 0.18,4.46 0.2,5.33 0.01,0.27 -0.07,0.63 -0.05,0.82l0.05 1.79c-0.02,0.29 -0.18,0.93 -0.09,1.22 0.06,0.18 0.08,-0.04 0.11,0.32l-0.1 2.67c-0.08,0.66 -0.1,0.99 -0.08,1.67l3.79 -0.22c3.85,-0.41 5.74,-1.06 9.23,-2.88 1.9,-0.99 4.07,-3.02 5.36,-4.74 2.22,-2.96 3.61,-6.78 3.75,-10.45 0.01,-0.33 -0.02,-0.69 -0,-1.01 0.13,-1.99 -0.11,-4.27 -0.78,-6.17 -1.41,-3.97 -3.84,-6.59 -7.17,-9.05 -3.15,-2.32 -6.55,-4.29 -9.97,-6.19 -0.85,-0.47 -1.73,-1.01 -2.59,-1.45 -1.26,-0.64 -0.86,-1.3 -0.87,-2.04 -0,-0.34 -0,-0.67 -0,-1.01l0.06 -8.08c0.02,-1.4 -0.54,-2.46 1.19,-2.73 1.3,-0.21 2.34,-0.27 3.63,0.04 1.51,0.36 2.77,1.18 3.96,2.1 0.41,0.32 0.6,0.71 1.14,0.95 0.54,0.24 2.15,-1.04 2.62,-1.31 1.26,-0.72 3.93,-2.28 5.05,-3.03 2.07,-1.4 3.24,-1.36 2.1,-2.04l-1.76 -1.15c-3.33,-2.1 -6.91,-3.98 -10.8,-4.76 -0.5,-0.1 -1.17,-0.24 -1.66,-0.3l-2.79 -0.12c-0.34,-0.01 -0.55,-0.11 -0.94,-0.05 -1.04,0.17 -5.13,-0.42 -5.48,0.05 -0.11,0.24 -0.1,1.37 -0.13,1.72z"/>
   <path class="fil2" d="M51.77 27.82c-0.12,0.31 -0.3,0.61 -0.41,0.91 -0.1,0.25 -0.2,0.73 -0.31,0.92 -0.16,0.3 -0.65,2.7 -0.71,3.17 -0.13,1.15 -0.34,2.47 -0.24,3.68 0.02,0.2 0.05,0.19 0.06,0.41 0.04,1.16 0.11,1.89 0.44,3.01 0.14,0.49 0.36,0.95 0.52,1.44 0.14,0.42 0.43,1.14 0.13,1.51 -0.5,0.17 -0.86,-0.5 -0.98,-0.9 -0.15,-0.5 -0.36,-0.99 -0.53,-1.49 -0.45,-1.33 -0.38,-2.36 -0.52,-3.52 -0.15,-1.31 0.19,-4.21 0.53,-5.52 0.12,-0.47 0.42,-1.1 0.48,-1.54 0.12,-0.46 1.08,-2.9 1.36,-3.13 0.15,0 0.22,-0.38 0.28,-0.52 0.07,-0.16 0.19,-0.41 0.28,-0.55 0.22,-0.35 0.41,-0.67 0.64,-1.02 0.29,-0.44 0.46,-0.53 0.78,-0.89 0.28,-0.31 0.47,-0.65 0.82,-0.91 0.33,-0.24 0.58,-0.51 0.91,-0.76 0.29,-0.22 0.69,-0.48 0.95,-0.71 0.33,-0.3 1,-0.94 1.43,-1.06 0.24,-0.07 0.51,-0.07 0.5,-0.36 -0.29,-0.27 -1.67,-0.13 -2.13,-0.14 -0.36,-0 -0.68,0.06 -1.07,0.06l-12.42 0c-0.39,-0 -0.62,0.02 -1.01,-0 -1.44,-0.09 -1.55,-0.04 -1.43,1.37 0.04,0.5 0.01,1.25 0,1.78 -0,0.54 0.06,1.09 0.06,1.66l0 3.5c-0,0.57 0.06,1.13 0.06,1.72 -0,1.19 0.01,2.38 0,3.56 -0,0.55 0.06,1.09 0.06,1.66 0,0.6 -0.01,3.91 0.04,4.29 0.04,0.24 0.01,0.62 0.01,0.88l0 13.19c-0,0.25 0.07,0.64 0.05,0.81 -0.15,1.22 0.15,2.67 -0.17,3.23 -0.15,0.26 -0.55,0.76 -0.76,1.03 -0.71,0.93 -1.63,2.35 -2.2,3.08 -0.45,0.57 -1.2,1.42 -1.53,2.03 -0.02,0.03 -1.48,1.88 -1.55,1.95 -0.05,0.05 -0.32,0.53 -0.77,1.01 -0.86,0.92 -0.57,1.37 -1.54,0.62 -0.18,-0.14 -0.53,-0.33 -0.65,-0.48 -0.34,-0.43 -0.64,-0.85 -0.89,-1.36 -0.41,-0.82 -0.4,-0.73 -0.63,-1.63 -0.08,-0.31 -0.18,-0.57 -0.24,-0.89 -0.06,-0.31 -0.12,-0.6 -0.4,-0.79 -0.33,0.08 -0.65,0.28 -0.93,0.49l-11.7 6.89c-1.72,1 -1.96,0.85 -1.08,2.17 0.6,0.89 0.93,1.65 1.67,2.61 0.41,0.53 0.74,1.16 1.16,1.69l1.32 1.59c0.2,0.27 0.46,0.49 0.7,0.73 0.15,0.15 0.2,0.21 0.33,0.38l1.9 1.73c0.62,0.51 0.3,0.77 -0.48,1.7 -0.19,0.22 -0.44,0.59 -0.59,0.84 -0.12,0.2 -0.5,0.79 -0.49,0.98 0.4,0.14 0.87,0.04 1.3,0.09l1.49 -0.23c0.58,-0.06 1.41,0.04 1.63,-0.21 -0.3,0 -0.38,-0.02 -0.64,-0.06 -0.28,-0.03 -0.38,0.02 -0.59,0.05 -0.48,0.06 -0.81,-0.08 -1.24,0.05 -0.33,0.02 -0.74,0.05 -1,-0.18 -0.03,-0.37 0.26,-0.78 0.52,-1l2.57 -3.31c0.19,-0.39 0.19,-0.55 0.53,-0.9 0.31,-0.31 0.37,-0.56 0.59,-0.9 0.18,-0.28 0.45,-0.5 0.67,-0.82l3.76 -5.09c0.21,-0.28 0.47,-0.54 0.67,-0.82 0.32,-0.44 1.19,-1.16 1.34,-1.6 0.12,-0.27 0.75,-1.15 0.98,-1.31 0.19,-0.21 0.59,-1.04 1.23,-1.8 0.12,-0.14 0.17,-0.31 0.29,-0.48l1.66 -2.2c0.31,-0.31 0.82,-1.21 1.34,-1.75 0.16,-0.16 0.65,-0.67 0.69,-0.84 0.05,-0.13 1.4,-1.94 1.49,-2.02 0.05,-0.06 0.31,-0.41 0.35,-0.48 0.15,-0.41 3.59,-4.72 3.94,-5.32l1.59 -2.17c0.3,-0.41 0.63,-0.76 0.94,-1.2 0.29,-0.41 0.59,-0.87 0.9,-1.22 0.06,-0.26 0.21,-0.29 0.44,-0.53 0.06,-0.07 0.03,-0.03 0.06,-0.08 0.07,-0.23 0.33,-0.65 0.51,-0.78 0.15,-0.15 0.24,-0.44 0.37,-0.64 0.13,-0.21 0.27,-0.39 0.42,-0.59 0.29,-0.39 0.63,-0.7 0.95,-1.09 0.19,-0.36 0.34,-0.57 0.59,-0.88 0.15,-0.18 0.13,-0.31 0.32,-0.45 0.21,-0.17 0.27,-0.15 0.34,-0.45 0.32,-0.19 0.44,-0.58 0.65,-0.82 0.88,-1.04 2.47,-3.26 3.23,-4.32 0.42,-0.59 0.87,-1.11 1.28,-1.65 0.14,-0.42 0.28,-0.65 0.49,-1.03 0.23,-0.4 0.46,-0.46 0.8,-0.73 0.11,-0.25 0.32,-0.59 0.55,-0.73l0.1 -0.16c0.15,-0.43 3.85,-5.22 3.93,-5.4 0.35,-0.78 0.08,-1.35 0.21,-2.12 0.08,-0.47 -0.07,-0.66 -0.03,-1.1 0.03,-0.28 0.13,-0.25 0.13,-0.47 -0,-0.13 -0.08,-0.26 -0.09,-0.48 -0.01,-0.38 0.08,-0.81 0.07,-1.13 -0.01,-0.35 -0.08,-0.59 -0.07,-1.01 0.01,-0.76 -0.03,-1.52 -0.07,-2.26 -0.34,-0.21 -0.13,-0.12 -0.68,-0 -0.97,0.2 -2.89,0.84 -3.54,1.33 -0.16,0.12 -0.98,0.46 -1.22,0.62 -1.64,1.17 -1.15,0.56 -2.77,2.17 -0.58,0.57 -3.1,3.85 -3.09,4.32z"/>
   <path class="fil3" d="M41.59 69.39l-3.74 0.02c-0.39,0 -0.81,-0.1 -1.05,0.19 -0.56,0.68 -1.79,2.46 -2.16,2.83 -0.26,0.18 -1.4,1.9 -1.69,2.3 -0.56,0.77 -1.17,1.54 -1.7,2.34l-0.65 0.83 -1.16 1.57c-0.21,0.28 -0.76,0.87 -0.88,1.14 -0.07,0.16 -0.18,0.3 -0.28,0.44 -0.16,0.34 -0.5,0.8 -0.76,1.06 -0.14,0.18 -0.18,0.21 -0.29,0.44 -0.06,0.13 -0.21,0.27 -0.32,0.39 -0.34,0.36 -0.31,0.42 -0.78,0.67 -0.16,0.21 -0.19,0.47 -0.43,0.52l0 0.25 -0.03 0.3c0.16,0.56 0.94,0.39 1.43,0.43 3.72,-0.15 7.5,0.02 11.23,-0.05 1.85,-0.03 3.73,-0.04 5.58,-0.04 0.78,0 2.14,0.08 2.85,-0.02 0.37,-0.05 0.63,0.01 0.83,0.01l1.32 -0.1c0.02,-0.08 -0.03,0.04 0.16,0.04 0.15,-0 0.25,-0.05 0.32,-0.06 0.1,-0.01 -0,0.03 0.15,0.02 0.19,-0.02 0.05,-0.04 0.18,-0.05 0.16,-0.01 0.15,0.12 0.37,-0.03 -0.23,-0.02 -0.16,0.05 -0.19,0.14 0.47,0.18 0.34,-0.05 0.69,0.04 0.42,0.11 1.02,-0.09 1.63,-0 0.89,0.13 1.25,-0.37 2,-0.75 1.12,-0.57 2.3,-1.46 3.22,-2.31 1.68,-1.55 3.61,-4.59 4.32,-6.74 0.36,-1.09 1.62,-4.99 1.33,-5.88l-7.36 0.02c-1.1,0.11 -1.26,-0.17 -1.68,-0.06 -0.44,0.12 -0.36,0.07 -0.76,0.02 -0.25,-0.03 -0.68,-0 -0.95,-0 -2.57,0 -4.53,0.14 -7.21,-0.03 -1.37,-0.09 -2.21,0.15 -2.59,0.15 -0.32,-0 -0.64,0.02 -0.95,-0.02z"/>
   <path class="fil4" d="M58.94 39.56c-0.16,0.21 -0.27,0.49 -0.44,0.71 -0.13,0.17 -0.41,0.43 -0.49,0.62 -0.28,0.48 -1.17,1.73 -1.56,2.11 -0.45,0.68 -0.35,0.39 -0.58,0.69 -0.18,0.23 0.04,0.17 -0.44,0.81l-1.11 1.44c-0.17,0.36 -3.45,4.71 -3.94,5.34 -0.29,0.38 -1.06,1.55 -1.36,1.72 -0.05,0.03 -0.05,0.02 -0.1,0.14 -0.06,0.16 -0.01,0.09 -0.11,0.25 -0.11,0.18 -0.21,0.22 -0.3,0.33l-1.28 1.71c-0.2,0.39 -3.25,4.4 -3.6,4.89 -0.58,0.79 -1.16,1.68 -1.76,2.46 -0.32,0.42 -0.61,0.78 -0.92,1.22 -0.23,0.32 -0.62,0.91 -0.87,1.19 -0.1,0.28 -0.33,0.45 -0.31,0.7 0.58,0.13 4.89,0.03 5.87,0.04l5.92 0.12 6.92 -0.12c0.6,-0 0.09,-0.08 0.93,0.02l0.12 -0.19 0.13 0.16c0.56,-0.01 0.69,-0.09 0.83,-0.09 0.44,0.01 -0.11,0.15 1.15,0.05 0.27,-0.02 1.32,0.13 1.46,-0.17l-0 -6.95c0.02,-0.38 0.16,-0.39 0.01,-0.59l-0.02 -5.88c-0.03,-0.41 -0.01,-1.1 -0.01,-1.54l0.06 -15.15c0,-0.47 -0.05,-1 -0.04,-1.49l-0.04 -0.17 -1.03 1.41c-0.56,0.72 -2.75,3.91 -3.07,4.22z"/>
   <path class="fil5" d="M67.14 65.94c-0.03,-0.47 -0.03,-1.23 -0,-1.7 0.04,-0.61 0.03,-1.06 0.04,-1.66 0.01,-1.12 0.08,-2.19 0.01,-3.31 -0.01,-1.13 0.21,-2.88 0.05,-3.91 -0.09,-0.56 -0.09,-1.28 -0.09,-1.87 -0,-0.59 0.07,-1.4 0.01,-1.91 -0.03,-0.29 0.1,-0.77 -0.02,-1.83 -0.16,-1.43 0.1,-4.17 0.02,-4.77 -0.13,-1.05 -0.06,-3.78 -0.03,-4.86 0.08,-2.58 -0.2,-9.69 0.03,-11.56 -0.2,0.1 -1.9,2.49 -2.17,2.87 -0.66,0.93 -0.72,0.54 -0.74,1.8 -0.01,0.83 -0.05,1.66 -0.05,2.49 0.02,3.36 0.08,6.73 0.04,10.1 -0.05,3.38 0.06,6.78 0.01,10.16l0.01 8.73c0.02,0.22 0.04,0.37 0.04,0.6l0 0.53c0.33,0.18 2.34,0.11 2.84,0.1z"/>
   <path class="fil6" d="M63.92 71.49l-0.03 0.44c-0.02,1.23 -0.82,2.99 -1.13,4.07 -0.27,0.95 -1.16,2.69 -1.69,3.49 -0.46,0.69 -1.09,1.66 -1.6,2.26 -0.92,1.09 -0.62,0.95 -1.91,1.95 -0.25,0.2 -1.32,0.91 -1.43,1.21 0.32,0.18 2.69,0 3.28,0.04 0.28,0.02 0.18,0.06 0.47,0.01 0.31,-0.06 0.14,0.13 0.24,-0.08 0.67,0.06 0.96,0.06 1.63,-0.01 0.2,-0.02 0.26,0.06 0.47,0.1 0.39,0.13 1.92,0.05 2.44,0.05 0.42,0 0.83,-0 1.25,0 0.43,0 0.74,-0.06 1.19,-0.06 0.12,-0.9 -0.01,-2.47 -0.02,-3.45 -0.02,-1.19 0.17,-1.37 -0.03,-2.51l-0.01 -6.23c0.01,-0.31 0.11,-0.4 0.11,-0.77 0,-0.33 0.03,-0.56 0.05,-0.88 0.05,-0.5 -0.19,-1.62 0.28,-1.85l-3.17 -0.01c-0.09,0.77 -0.16,1.47 -0.37,2.21z"/>
   <path class="fil7" d="M67.15 28.55c-0.23,1.87 0.05,8.98 -0.03,11.56 -0.03,1.08 -0.1,3.81 0.03,4.86 0.08,0.61 -0.18,3.34 -0.02,4.77 0.12,1.06 -0.02,1.54 0.02,1.83 0.06,0.51 -0.01,1.32 -0.01,1.91 0,0.59 0,1.31 0.09,1.87 0.16,1.03 -0.06,2.78 -0.05,3.91 0.15,-0.09 0.12,-1.65 0.12,-1.92 0.01,-0.66 0.1,-1.3 0.1,-1.96l0.04 -1.93c-0.06,-0.37 -0.03,-0.6 -0.05,-0.98 -0.01,-0.33 -0.25,-0.53 -0.12,-0.86 0.13,-0.34 0.13,-0.52 0.06,-0.88 -0.07,-0.36 0.05,-0.55 0.05,-0.93l0.01 -1.55c-0.03,-0.32 -0.1,-0.14 -0.12,-0.41 -0.02,-0.21 0.11,-0.65 0.13,-0.89 0.03,-0.44 -0.24,-0.56 -0.09,-0.91 0.16,-0.39 0.1,-0.52 0.07,-0.94l0.02 -2.55c-0.02,-0.14 -0.08,-0.25 -0.09,-0.42 -0.07,-1.08 0.18,-3.2 0.06,-4.05 -0.07,-0.52 -0.04,-0.4 0.01,-0.88 0.02,-0.21 -0.05,-0.72 -0.05,-1.02 0.01,-1.33 0.06,-2.7 0.03,-4.04 -0.01,-0.83 0.18,-3.57 -0.09,-4.13 -0.01,0.33 0.03,0.26 -0.11,0.52z"/>
   <path class="fil8" d="M67.08 84.97l0.14 0c-0.02,-0.68 0,-1.01 0.08,-1.67l0.1 -2.67c-0.02,-0.36 -0.05,-0.14 -0.11,-0.32 -0.09,-0.29 0.07,-0.93 0.09,-1.22l-0.05 -1.79c-0.01,-0.2 0.06,-0.56 0.05,-0.82 -0.02,-0.87 0.14,-4.87 -0.2,-5.33 -0.03,0.32 -0.05,0.55 -0.05,0.88 -0,0.36 -0.1,0.45 -0.11,0.77l0.01 6.23c0.2,1.14 0.01,1.32 0.03,2.51 0.01,0.97 0.14,2.54 0.02,3.45z"/>
   <path class="fil9" d="M40.52 58.18c0.61,-0.38 1.04,-1.02 1.42,-1.5 0.22,-0.27 0.53,-0.55 0.7,-0.78 0.25,-0.34 0.28,-0.72 0.73,-0.76 0.4,-1.09 1,-1.33 1.18,-1.67 0.64,-1.24 0.35,-0.71 1.09,-1.76 0.41,-0.59 0.87,-0.93 1.23,-1.62 0.38,-0.73 1.03,-0.93 1.03,-1.81 -0.32,0.35 -0.61,0.81 -0.9,1.22 -0.31,0.44 -0.64,0.79 -0.94,1.2l-1.59 2.17c-0.35,0.6 -3.79,4.92 -3.94,5.32z"/>
   <path class="fil10" d="M56.15 84.46l-0.56 0.45c0.12,0.21 0.33,0.09 0.68,0.12 0.38,0.03 0.1,0.06 0.83,0.06l4.28 0c0.14,0 0.28,-0 0.42,0 0.47,0.01 0.33,0 0.42,-0.11 -0.21,-0.04 -0.27,-0.12 -0.47,-0.1 -0.67,0.06 -0.95,0.07 -1.63,0.01 -0.1,0.21 0.07,0.02 -0.24,0.08 -0.28,0.05 -0.18,0.01 -0.47,-0.01 -0.58,-0.04 -2.96,0.14 -3.28,-0.04 0.11,-0.3 1.17,-1.02 1.43,-1.21 1.29,-1 0.99,-0.86 1.91,-1.95 0.51,-0.6 1.15,-1.57 1.6,-2.26 0.53,-0.8 1.42,-2.54 1.69,-3.49 0.31,-1.08 1.11,-2.84 1.13,-4.07 -0.14,0.17 -0.14,0.28 -0.19,0.53 -0.28,1.25 -0.63,2.17 -1.02,3.38 -0.42,1.31 -0.63,1.38 -0.98,2.18 -0.06,0.13 -0.13,0.27 -0.22,0.4 -0.95,1.56 -1.03,2.04 -2.6,3.7l-1.28 1.21c-0.32,0.35 -0.97,1.07 -1.46,1.13z"/>
   <path class="fil11" d="M39.48 65.78l0.01 0.3c0.44,0.32 3.09,0.06 3.88,0.06l6.89 0.06 0.15 -0.15c-0.19,0.04 0.45,-0.09 0.87,0.02l0.3 0.02c-0.01,-0.1 0.04,-0.07 -0.04,-0.05l-5.92 -0.12c-0.98,-0.01 -5.29,0.09 -5.87,-0.04 -0.02,-0.26 0.21,-0.42 0.31,-0.7 -0.1,0.05 -0.56,0.52 -0.59,0.59z"/>
   <path class="fil12" d="M40.08 65.19c0.25,-0.28 0.64,-0.87 0.87,-1.19 0.31,-0.44 0.59,-0.8 0.92,-1.22 0.61,-0.78 1.19,-1.66 1.76,-2.46 0.36,-0.49 3.41,-4.49 3.6,-4.89 -0.22,0.19 -0.29,0.34 -0.48,0.53 -1.63,1.62 -1.02,1.3 -1.84,2.38l-1.5 1.71c-0.41,0.86 -0.02,0.53 -0.83,1.25 -0.23,0.2 -0.16,0.4 -0.41,0.66 -0.36,0.37 -0.19,0.31 -0.42,0.64 -0.42,0.61 -1.65,1.9 -1.68,2.58z"/>
   <path class="fil13" d="M49.02 53c0.3,-0.17 1.07,-1.35 1.36,-1.72 0.49,-0.63 3.76,-4.98 3.94,-5.34 -0.1,0.06 -0.77,0.59 -0.82,0.67 -0.1,0.16 -0.11,0.34 -0.25,0.53 -0.14,0.18 -0.24,0.19 -0.35,0.42 -0.3,0.6 -0.28,0.43 -0.66,0.89 -0.12,0.14 -0.16,0.31 -0.29,0.48 -0.11,0.14 -0.28,0.31 -0.35,0.42 -0.24,0.35 -0.34,0.58 -0.63,0.91 -0.3,0.34 -0.18,0.53 -0.63,0.92 -0.32,0.27 -0.41,0.59 -0.68,0.87 -0.32,0.33 -0.62,0.46 -0.64,0.96z"/>
   <path class="fil14" d="M34.64 72.43c0.37,-0.37 1.6,-2.15 2.16,-2.83 0.24,-0.3 0.66,-0.19 1.05,-0.19l3.74 -0.02c-0.25,-0.12 -0.89,-0.16 -1.19,-0.16l-1.07 -0.12c-0,0 -0.02,0.01 -0.03,0.01 -0.01,0 -0.02,0.01 -0.03,0.01 -0.45,0.07 -0.67,0.17 -1.02,0.17 -0.32,-0 -1.01,-0.16 -1.24,-0.06 -0.03,0.01 -0.66,0.63 -0.7,0.67 -0.2,0.28 -0.36,0.59 -0.56,0.87 -0.18,0.26 -0.39,0.43 -0.61,0.76 -0.2,0.3 -0.43,0.53 -0.52,0.9z"/>
   <path class="fil15" d="M25.29 83.6c-0.22,0.25 -1.05,0.15 -1.63,0.21l-1.49 0.23c0.17,0.08 0.54,0.07 0.76,0.03 0.46,-0.07 0.38,0.01 0.78,0.02l1.25 -0c0.22,0.02 0.17,0.06 0.42,0.06l0.32 -0.01c0.24,-0.05 0.27,-0.31 0.43,-0.52 -0.21,-0.01 -0.16,-0.03 -0.35,-0.01 -0.17,0.01 -0.31,0.01 -0.49,0.01z"/>
   <path class="fil16" d="M66.7 22.94c0.18,-0.07 0.15,-0.11 0.37,-0.09 0.38,0.53 -0.06,4.16 0.21,4.44 -0,-0.88 0,-1.74 0.02,-2.61 0.01,-0.42 -0.03,-0.91 -0.01,-1.31 0.01,-0.4 0.25,-0.63 -0.13,-0.96 -0.17,0.15 -0.35,0.32 -0.45,0.54z"/>
   <path class="fil17" d="M50.22 29.9c0.18,-0.22 0.23,-0.48 0.35,-0.71 0.15,-0.29 0.26,-0.41 0.4,-0.73 0.14,-0.34 0.59,-1.38 0.61,-1.68 -0.28,0.22 -1.24,2.67 -1.36,3.13z"/>
   <path class="fil16" d="M38.68 60.67c0.2,-0.13 0.23,-0.22 0.48,-0.36 0.38,-0.22 0.24,-0.15 0.4,-0.49 0.12,-0.26 0.57,-0.63 0.61,-1.16 -0.1,0.08 -1.44,1.88 -1.49,2.02z"/>
   <path class="fil18" d="M51.89 42.79c-0.07,0.3 -0.13,0.28 -0.34,0.45 -0.19,0.15 -0.17,0.27 -0.32,0.45 -0.25,0.31 -0.4,0.52 -0.59,0.88l0.2 -0.06c0.1,-0.33 1.41,-1.72 1.47,-2.1 -0.33,0.08 -0.23,0.28 -0.43,0.38z"/>
   <path class="fil12" d="M56.45 43c0.39,-0.39 1.28,-1.63 1.56,-2.11 -0.35,0.19 -0.64,0.66 -0.85,1.01 -0.22,0.38 -0.6,0.73 -0.71,1.1z"/>
   <path class="fil19" d="M22.82 83.65c-0.12,-0.28 -0.53,0.04 -0.81,-0.19 -0.27,-0.33 0.3,-0.55 0.34,-0.99 -0.27,0.22 -0.56,0.63 -0.52,1 0.26,0.22 0.67,0.2 1,0.18z"/>
   <path class="fil18" d="M32.48 69.05c0.37,-0.3 0.85,-0.79 0.98,-1.31 -0.23,0.16 -0.86,1.04 -0.98,1.31z"/>
   <path class="fil20" d="M47.23 55.43l1.28 -1.71c-0.38,0.2 -1.12,1.26 -1.28,1.71z"/>
   <path class="fil21" d="M48.39 47.66l0.16 0c0.33,-0.09 0.35,-0.46 0.35,-0.78 -0.18,0.13 -0.44,0.55 -0.51,0.78z"/>
   <path class="fil17" d="M51.04 29.65c0.11,-0.19 0.22,-0.67 0.31,-0.92 0.11,-0.3 0.3,-0.59 0.41,-0.91 -0.37,0.23 -0.72,1.42 -0.73,1.83z"/>
   <path class="fil22" d="M27.52 82.11c0.27,-0.26 0.61,-0.72 0.76,-1.06 -0.23,0.17 -0.69,0.78 -0.76,1.06z"/>
   <path class="fil12" d="M30.6 77.9l0.65 -0.83c-0.32,0.21 -0.56,0.46 -0.65,0.83z"/>
   <path class="fil23" d="M39.49 66.08l-0.01 -0.3c-0.21,0.11 -0.26,0.09 -0.22,0.26l0.24 0.04z"/>
   <path class="fil21" d="M25.7 84.38l-0 -0.25 -0.32 0.01c0.09,0.07 0.22,0.16 0.32,0.24z"/>
   <polygon class="fil18" points="67.89,57.58 68.09,57.39 67.91,57.4 "/>
  </g>
 </g>
</svg>
